<?xml version="1.0" encoding="UTF-8" standalone="no"?>
<svg
   width="5.291667mm"
   height="4.9982095mm"
   viewBox="0 0 5.291667 4.9982094"
   version="1.1"
   id="svg8"
   sodipodi:docname="personalLogo-small.svg"
   inkscape:version="1.1.1 (3bf5ae0d25, 2021-09-20, custom)"
   xmlns:inkscape="http://www.inkscape.org/namespaces/inkscape"
   xmlns:sodipodi="http://sodipodi.sourceforge.net/DTD/sodipodi-0.dtd"
   xmlns="http://www.w3.org/2000/svg"
   xmlns:svg="http://www.w3.org/2000/svg"
   xmlns:rdf="http://www.w3.org/1999/02/22-rdf-syntax-ns#"
   xmlns:cc="http://creativecommons.org/ns#"
   xmlns:dc="http://purl.org/dc/elements/1.1/">
  <defs
     id="defs2" />
  <sodipodi:namedview
     id="base"
     pagecolor="#ffffff"
     bordercolor="#666666"
     borderopacity="1.0"
     inkscape:pageopacity="0.0"
     inkscape:pageshadow="2"
     inkscape:zoom="23.461934"
     inkscape:cx="14.150581"
     inkscape:cy="8.8867354"
     inkscape:document-units="mm"
     inkscape:current-layer="layer1"
     inkscape:document-rotation="0"
     showgrid="false"
     inkscape:window-width="1920"
     inkscape:window-height="1024"
     inkscape:window-x="1920"
     inkscape:window-y="32"
     inkscape:window-maximized="1"
     inkscape:pagecheckerboard="true"
     fit-margin-top="0"
     fit-margin-left="0"
     fit-margin-right="0"
     fit-margin-bottom="0"
     width="63.0767mm" />
  <metadata
     id="metadata5">
    <rdf:RDF>
      <cc:Work
         rdf:about="">
        <dc:format>image/svg+xml</dc:format>
        <dc:type
           rdf:resource="http://purl.org/dc/dcmitype/StillImage" />
      </cc:Work>
    </rdf:RDF>
  </metadata>
  <g
     inkscape:label="Layer 1"
     inkscape:groupmode="layer"
     id="layer1"
     transform="translate(-81.54894,-105.68039)">
    <g
       id="g884"
       transform="matrix(0.08389257,0,0,0.08389257,74.70759,96.81459)">
      <g
         id="g953"
         inkscape:export-xdpi="96"
         inkscape:export-ydpi="96"
         style="fill:#ffffff;stroke:#000000;stroke-opacity:1">
        <g
           id="g261"
           inkscape:export-filename="/home/cullenm/mcullenm-dev/mcullenm-dev-frontend/src/img/logo.png"
           inkscape:export-xdpi="96"
           inkscape:export-ydpi="96"
           style="fill:#ffffff;stroke:#000000;stroke-opacity:1">
          <g
             id="g896"
             inkscape:export-xdpi="96"
             inkscape:export-ydpi="96"
             transform="matrix(4.9442177,0,0,4.9442177,-146.11717,-13.71214)"
             style="fill:#f9f9f9;stroke:none;stroke-opacity:1">
            <path
               style="fill:#f9f9f9;fill-opacity:1;stroke:none;stroke-width:0.268184px;stroke-linecap:butt;stroke-linejoin:miter;stroke-opacity:1"
               d="m 50.969757,35.553066 7.834857,0.006 -0.0058,-0.847588 -7.493915,-0.0088 z"
               id="path872"
               sodipodi:nodetypes="ccccc" />
            <g
               aria-label="m"
               id="text12"
               style="font-size:10.5833px;line-height:1.25;font-family:sans-serif;letter-spacing:0px;fill:#f9f9f9;stroke:none;stroke-width:0.264583;stroke-opacity:1">
              <path
                 d="m 48.060474,24.423077 q 0.338666,-0.08467 0.888997,-0.179916 0.560915,-0.09525 1.291163,-0.09525 0.529165,0 0.888997,0.148166 0.359832,0.137583 0.603248,0.412749 0.07408,-0.05292 0.232833,-0.148166 0.158749,-0.09525 0.391582,-0.179917 0.232832,-0.09525 0.518581,-0.158749 0.285749,-0.07408 0.613832,-0.07408 0.634998,0 1.037163,0.190499 0.402165,0.179916 0.624415,0.518582 0.232832,0.338666 0.306915,0.804331 0.08467,0.465665 0.08467,1.015996 v 3.090324 h -0.98425 v -2.878658 q 0,-0.486831 -0.05292,-0.83608 -0.04233,-0.349249 -0.179916,-0.582082 -0.126999,-0.232832 -0.359832,-0.338665 -0.222249,-0.116417 -0.582081,-0.116417 -0.497415,0 -0.825498,0.137583 -0.317499,0.127 -0.433915,0.232833 0.08467,0.275166 0.127,0.603248 0.04233,0.328082 0.04233,0.687914 v 3.090324 h -0.984247 v -2.878658 q 0,-0.486831 -0.05292,-0.83608 -0.05292,-0.349249 -0.190499,-0.582082 -0.127,-0.232832 -0.359832,-0.338665 -0.222249,-0.116417 -0.571498,-0.116417 -0.148167,0 -0.317499,0.01058 -0.169333,0.01058 -0.328083,0.03175 -0.148166,0.01058 -0.275165,0.03175 -0.127,0.02117 -0.169333,0.03175 v 4.646069 h -0.984247 z"
                 style="fill:#f9f9f9;stroke:none;stroke-opacity:1"
                 id="path955" />
            </g>
            <g
               aria-label="C"
               transform="rotate(-27.603165)"
               id="text22"
               style="font-style:normal;font-variant:normal;font-weight:normal;font-stretch:normal;font-size:10.5833px;line-height:1.25;font-family:'Ubuntu Mono';-inkscape-font-specification:'Ubuntu Mono';letter-spacing:0px;fill:#f9f9f9;stroke:none;stroke-width:0.264583;stroke-opacity:1">
              <path
                 d="m 29.866475,54.800541 q -0.370415,0.211666 -0.793747,0.306915 -0.412749,0.105833 -0.888997,0.105833 -0.582082,0 -1.079497,-0.201082 -0.486832,-0.211666 -0.846664,-0.624415 -0.359832,-0.423332 -0.571498,-1.068913 -0.201083,-0.645582 -0.201083,-1.523995 0,-0.836081 0.211666,-1.471079 0.22225,-0.634998 0.592665,-1.068913 0.370416,-0.433916 0.867831,-0.656165 0.497415,-0.222249 1.05833,-0.222249 0.391582,0 0.793747,0.105833 0.412749,0.105833 0.804331,0.349249 l -0.253999,0.719664 q -0.698498,-0.402165 -1.31233,-0.402165 -0.433915,0 -0.783164,0.190499 -0.338665,0.179916 -0.582081,0.529165 -0.243416,0.349249 -0.380999,0.836081 -0.127,0.486832 -0.127,1.09008 0,0.677331 0.137583,1.174746 0.148167,0.497415 0.402166,0.825497 0.253999,0.328083 0.603248,0.486832 0.359832,0.15875 0.772581,0.15875 0.306915,0 0.645581,-0.07408 0.338666,-0.08467 0.698498,-0.285749 z"
                 style="font-style:normal;font-variant:normal;font-weight:normal;font-stretch:normal;font-family:'Ubuntu Mono';-inkscape-font-specification:'Ubuntu Mono';fill:#f9f9f9;stroke:none;stroke-width:0.264583;stroke-opacity:1"
                 id="path958" />
            </g>
            <g
               aria-label="m"
               id="text12-0"
               style="font-size:10.5833px;line-height:1.25;font-family:sans-serif;letter-spacing:0px;fill:#f9f9f9;stroke:none;stroke-width:0.264583;stroke-opacity:1">
              <path
                 d="m 51.311256,29.368706 q 0.338666,-0.08467 0.888997,-0.179916 0.560915,-0.09525 1.291163,-0.09525 0.529165,0 0.888997,0.148166 0.359832,0.137583 0.603248,0.412749 0.07408,-0.05292 0.232833,-0.148166 0.158749,-0.09525 0.391582,-0.179916 0.232832,-0.09525 0.518581,-0.15875 0.285749,-0.07408 0.613832,-0.07408 0.634998,0 1.037163,0.190499 0.402165,0.179916 0.624415,0.518582 0.232832,0.338666 0.306915,0.804331 0.08467,0.465665 0.08467,1.015997 v 3.090323 h -0.984247 v -2.878657 q 0,-0.486832 -0.05292,-0.836081 -0.04233,-0.349249 -0.179916,-0.582082 -0.126999,-0.232832 -0.359832,-0.338665 -0.222249,-0.116416 -0.582081,-0.116416 -0.497415,0 -0.825498,0.137582 -0.317499,0.127 -0.433915,0.232833 0.08467,0.275166 0.127,0.603248 0.04233,0.328082 0.04233,0.687915 v 3.090323 h -0.984247 v -2.878657 q 0,-0.486832 -0.05292,-0.836081 -0.05292,-0.349249 -0.190499,-0.582082 -0.127,-0.232832 -0.359832,-0.338665 -0.222249,-0.116416 -0.571498,-0.116416 -0.148167,0 -0.317499,0.01058 -0.169333,0.01058 -0.328083,0.03175 -0.148166,0.01058 -0.275165,0.03175 -0.127,0.02117 -0.169333,0.03175 v 4.646068 H 51.31125 Z"
                 style="fill:#f9f9f9;stroke:none;stroke-width:0.264583;stroke-opacity:1"
                 id="path961" />
            </g>
            <path
               style="fill:#f9f9f9;fill-opacity:1;stroke:none;stroke-width:0.264583px;stroke-linecap:butt;stroke-linejoin:miter;stroke-opacity:1"
               d="m 51.24842,35.411547 1.042239,-0.704982 -0.962263,0.0064 z"
               id="path870" />
          </g>
        </g>
      </g>
    </g>
  </g>
</svg>
